<svg width="25" height="24" viewBox="0 0 25 24" xmlns="http://www.w3.org/2000/svg">
<rect x="0.551758" width="23.552" height="24" rx="11.776" fill-opacity="0.3"/>
<path fill-rule="evenodd" clip-rule="evenodd" d="M9.27479 5C7.16743 5 5.4585 6.74144 5.4585 8.88889V15.1111C5.4585 17.2586 7.16743 19 9.27479 19H15.3809C17.4882 19 19.1972 17.2586 19.1972 15.1111V8.88889C19.1972 6.74144 17.4882 5 15.3809 5H9.27479ZM16.9074 6.55566C17.3287 6.55566 17.6707 6.90411 17.6707 7.33344C17.6707 7.76277 17.3287 8.11122 16.9074 8.11122C16.4861 8.11122 16.1442 7.76277 16.1442 7.33344C16.1442 6.90411 16.4861 6.55566 16.9074 6.55566ZM12.3278 8.11133C14.4352 8.11133 16.1441 9.85277 16.1441 12.0002C16.1441 14.1477 14.4352 15.8891 12.3278 15.8891C10.2204 15.8891 8.51151 14.1477 8.51151 12.0002C8.51151 9.85277 10.2204 8.11133 12.3278 8.11133ZM12.3278 9.66699C11.0632 9.66699 10.038 10.7117 10.038 12.0003C10.038 13.289 11.0632 14.3337 12.3278 14.3337C13.5924 14.3337 14.6176 13.289 14.6176 12.0003C14.6176 10.7117 13.5924 9.66699 12.3278 9.66699Z" fill="white"/>
</svg>
