<svg width="40" height="40" viewBox="0 0 40 40" fill="none" xmlns="http://www.w3.org/2000/svg">
<path fill-rule="evenodd" clip-rule="evenodd" d="M20.0002 0L0.000488281 10.1611V14.5159L20.0002 4.35479L39.9999 14.5159V10.1611L20.0002 0Z" fill="#0A055F"/>
<path fill-rule="evenodd" clip-rule="evenodd" d="M3.38704 18.8712H8.2256V28.7096H11.6126V15.8066H0V28.7096H3.38704V18.8712Z" fill="#0A055F"/>
<path fill-rule="evenodd" clip-rule="evenodd" d="M13.2258 15.8066V28.7096H18.387L22.7418 18.4632V28.7096H26.1288V15.8066H20.9677L16.6129 26.0532V15.8066H13.2258Z" fill="#0A055F"/>
<path fill-rule="evenodd" clip-rule="evenodd" d="M27.7415 15.8066V28.7096H31.1285V24.5701L32.1245 23.5861L35.967 28.7096H39.9992L34.4406 21.298L39.9992 15.8066H35.6444L31.1285 20.6453V15.8066H27.7415Z" fill="#0A055F"/>
<path fill-rule="evenodd" clip-rule="evenodd" d="M9.58425 33.9199H8.50244V34.927H9.58425C9.77991 34.927 9.93236 34.8808 10.0416 34.7888C10.151 34.6968 10.2056 34.574 10.2056 34.4205C10.2056 34.2671 10.151 34.1453 10.0416 34.0551C9.93236 33.9651 9.77991 33.9199 9.58425 33.9199Z" fill="#FF4114"/>
<path fill-rule="evenodd" clip-rule="evenodd" d="M5.91559 34.4713C5.8293 34.4024 5.73147 34.3518 5.62211 34.3193C5.51285 34.2867 5.40051 34.2705 5.28554 34.2705H4.99194V35.9796H5.28554C5.40051 35.9796 5.51285 35.9635 5.62211 35.9308C5.73147 35.8984 5.8293 35.8477 5.91559 35.7788C6.00199 35.71 6.07101 35.6212 6.12278 35.5121C6.17455 35.4033 6.2005 35.2741 6.2005 35.1251C6.2005 34.976 6.17455 34.847 6.12278 34.7379C6.07101 34.629 6.00199 34.5402 5.91559 34.4713Z" fill="#FF4114"/>
<path fill-rule="evenodd" clip-rule="evenodd" d="M3.60806 34.3193C3.49881 34.3518 3.40098 34.4025 3.3147 34.4713C3.2283 34.5402 3.15927 34.629 3.1075 34.7379C3.05573 34.847 3.02979 34.976 3.02979 35.1251C3.02979 35.2742 3.05573 35.4033 3.1075 35.5122C3.15927 35.6212 3.2283 35.71 3.3147 35.7788C3.40098 35.8477 3.49881 35.8984 3.60806 35.9309C3.71755 35.9635 3.82966 35.9796 3.94474 35.9796H4.23822V34.2705H3.94474C3.82966 34.2705 3.71755 34.2867 3.60806 34.3193Z" fill="#FF4114"/>
<path fill-rule="evenodd" clip-rule="evenodd" d="M12.4153 35.5496H13.5604L12.9907 34.249L12.4153 35.5496Z" fill="#FF4114"/>
<path fill-rule="evenodd" clip-rule="evenodd" d="M35.2485 35.5496H36.3938L35.8241 34.249L35.2485 35.5496Z" fill="#FF4114"/>
<path fill-rule="evenodd" clip-rule="evenodd" d="M37.067 37.0687L36.6929 36.2228H34.9493L34.5752 37.0687H33.8042L35.4672 33.2476H36.2038L37.8668 37.0687H37.067ZM33.2662 35.4861C33.341 35.6205 33.3785 35.7739 33.3785 35.9465C33.3785 36.1039 33.3439 36.2543 33.2748 36.3982C33.2058 36.5421 33.1041 36.6687 32.9698 36.7781C32.8356 36.8873 32.6696 36.9757 32.4721 37.0426C32.2744 37.1097 32.0472 37.1434 31.7901 37.1434C31.5408 37.1434 31.322 37.1146 31.1342 37.0571C30.9462 36.9997 30.785 36.92 30.6507 36.8183C30.5164 36.7167 30.4052 36.5967 30.317 36.4586C30.2288 36.3206 30.1598 36.171 30.1098 36.0097H30.8752C30.9596 36.171 31.0804 36.288 31.2378 36.3608C31.3949 36.4337 31.5791 36.4702 31.7901 36.4702C32.0318 36.4702 32.2313 36.424 32.3885 36.3321C32.5459 36.24 32.6246 36.1134 32.6246 35.9522C32.6246 35.7989 32.5708 35.6847 32.4635 35.6099C32.356 35.535 32.2102 35.4976 32.0261 35.4976H31.1802V34.8244H32.0261C32.2102 34.8244 32.356 34.786 32.4635 34.7093C32.5708 34.6326 32.6246 34.5214 32.6246 34.3756C32.6246 34.2298 32.5555 34.1051 32.4173 34.0014C32.2793 33.8979 32.0837 33.8461 31.8305 33.8461C31.6194 33.8461 31.4276 33.8863 31.2551 33.9669C31.0825 34.0475 30.9654 34.1608 30.904 34.3064H30.1445C30.1866 34.1608 30.2528 34.0197 30.343 33.8836C30.433 33.7474 30.5472 33.6266 30.6854 33.521C30.8234 33.4156 30.9865 33.3311 31.1745 33.2677C31.3624 33.2044 31.5773 33.1729 31.8189 33.1729C32.0529 33.1729 32.2658 33.2026 32.4577 33.262C32.6496 33.3215 32.8134 33.4041 32.9498 33.5094C33.0858 33.615 33.1914 33.7406 33.2662 33.8863C33.341 34.0323 33.3785 34.1934 33.3785 34.3698C33.3785 34.5424 33.341 34.6959 33.2662 34.8301C33.1914 34.9645 33.0811 35.0739 32.9354 35.1581C33.0811 35.2425 33.1914 35.352 33.2662 35.4861ZM29.3791 37.0687H28.6254V34.3812L26.7264 37.0687H25.9725V33.2476H26.7264V35.935L28.6254 33.2476H29.3791V37.0687ZM24.9713 37.0687H19.9535V33.2476H20.7073V36.3953H22.0885V33.2476H22.8422V36.3953H24.2175V33.2476H24.9713V37.0687ZM18.9523 37.0687H18.1985V35.4919H16.3455V37.0687H15.5916V33.2476H16.3455V34.8187H18.1985V33.2476H18.9523V37.0687ZM14.2336 37.0687L13.8596 36.2228H12.116L11.742 37.0687H10.9709L12.6339 33.2476H13.3704L15.0335 37.0687H14.2336ZM10.8817 34.8761C10.8299 35.0182 10.7493 35.1428 10.6401 35.2502C10.5307 35.3576 10.3925 35.443 10.2257 35.5063C10.0588 35.5695 9.86213 35.6012 9.63585 35.6012H8.50227V37.0687H7.74834V33.2476H9.63585C9.86213 33.2476 10.0588 33.2794 10.2257 33.3426C10.3925 33.4059 10.5307 33.4913 10.6401 33.5987C10.7493 33.7061 10.8299 33.8308 10.8817 33.9727C10.9334 34.1147 10.9594 34.2643 10.9594 34.4215C10.9594 34.5827 10.9334 34.7343 10.8817 34.8761ZM6.82778 35.7623C6.74332 35.9504 6.6263 36.1104 6.4767 36.2428C6.3271 36.3752 6.15065 36.4768 5.94734 36.5478C5.7438 36.6188 5.52334 36.6543 5.28552 36.6543H4.99204V37.1607H4.23822V36.6543H3.94474C3.70691 36.6543 3.48635 36.6188 3.28304 36.5478C3.07961 36.4768 2.90327 36.3752 2.75356 36.2428C2.60396 36.1104 2.48693 35.9504 2.40259 35.7623C2.31814 35.5745 2.27597 35.3615 2.27597 35.1236C2.27597 34.8897 2.31814 34.6776 2.40259 34.4877C2.48693 34.2979 2.60396 34.1378 2.75356 34.0072C2.90327 33.8768 3.07961 33.776 3.28304 33.7051C3.48635 33.6341 3.70691 33.5987 3.94474 33.5987H4.23822V33.1614H4.99204V33.5987H5.28552C5.52334 33.5987 5.7438 33.6341 5.94734 33.7051C6.15065 33.776 6.3271 33.8768 6.4767 34.0072C6.6263 34.1378 6.74332 34.2979 6.82778 34.4877C6.91201 34.6776 6.95441 34.8897 6.95441 35.1236C6.95441 35.3615 6.91201 35.5745 6.82778 35.7623ZM0 39.9996H39.9994V30.3223H0V39.9996Z" fill="#FF4114"/>
</svg>
