<svg width="24" height="24" viewBox="0 0 24 24" fill="none" xmlns="http://www.w3.org/2000/svg">
<rect x="0.103516" width="23.552" height="24" rx="11.776" fill="black" fill-opacity="0.3"/>
<path d="M18.1216 15.967L16.2879 15.9928C16.2879 15.9928 15.8927 16.0715 15.3748 15.7075C14.6889 15.2272 14.0421 13.9781 13.538 14.1407C13.0265 14.3065 13.0424 15.4307 13.0424 15.4307C13.0424 15.4307 13.0466 15.6289 12.9293 15.7581C12.8025 15.897 12.5541 15.883 12.5541 15.883H11.7329C11.7329 15.883 9.92149 16.0359 8.32459 14.3399C6.58502 12.491 5.04836 8.84162 5.04836 8.84162C5.04836 8.84162 4.95853 8.61118 5.05471 8.4938C5.16356 8.36351 5.45736 8.36028 5.45736 8.36028L7.41993 8.35058C7.41993 8.35058 7.60488 8.38397 7.73804 8.48303C7.8469 8.56487 7.90925 8.71886 7.90925 8.71886C7.90925 8.71886 8.22631 9.53833 8.64693 10.2803C9.46705 11.7264 9.84857 12.043 10.1265 11.888C10.5323 11.6618 10.4108 9.84415 10.4108 9.84415C10.4108 9.84415 10.4182 9.18405 10.2068 8.89008C10.042 8.66071 9.73231 8.59287 9.59598 8.57564C9.48501 8.56057 9.66573 8.2989 9.90141 8.18045C10.2544 8.00492 10.879 7.99415 11.6156 8.00169C12.1895 8.00815 12.3554 8.04369 12.5795 8.09968C13.2569 8.26659 13.0265 8.91054 13.0265 10.4558C13.0265 10.9511 12.9388 11.6468 13.2886 11.8761C13.4397 11.9752 13.8075 11.8912 14.7259 10.2975C15.1624 9.54156 15.489 8.65317 15.489 8.65317C15.489 8.65317 15.5608 8.49488 15.6718 8.42704C15.7859 8.35705 15.9392 8.37858 15.9392 8.37858L18.0053 8.36566C18.0053 8.36566 18.6257 8.28921 18.7271 8.57672C18.8328 8.87715 18.4957 9.57817 17.6513 10.725C16.2657 12.6094 16.1114 12.4339 17.2624 13.5237C18.3615 14.565 18.5887 15.0711 18.6267 15.1346C19.0812 15.9056 18.1216 15.967 18.1216 15.967Z" fill="white"/>
</svg>
